<?xml version="1.0" standalone="no"?>
<!DOCTYPE svg PUBLIC "-//W3C//DTD SVG 20010904//EN"
 "http://www.w3.org/TR/2001/REC-SVG-20010904/DTD/svg10.dtd">
<svg version="1.0" xmlns="http://www.w3.org/2000/svg"
 width="1800.000000pt" height="1300.000000pt" viewBox="0 0 1800.000000 1300.000000"
 preserveAspectRatio="xMidYMid meet">

<g transform="translate(0.000000,1300.000000) scale(0.100000,-0.100000)"
fill="#000000" stroke="none">
<path d="M8184 10141 c-36 -22 -66 -62 -82 -110 -9 -25 -12 -551 -12 -2037 l0
-2004 -1167 -2 -1168 -3 -53 -29 c-55 -31 -97 -84 -89 -113 4 -14 5 -13 6 4 1
30 46 80 95 106 l41 22 2617 0 c1440 0 2610 3 2600 7 -9 4 -587 7 -1284 7
l-1268 1 -2 2023 -3 2023 -28 43 c-51 77 -135 103 -203 62z m161 -34 c27 -26
47 -58 54 -83 8 -30 10 -605 9 -2035 l-3 -1994 -150 0 -150 0 -3 1995 c-2
2203 -7 2053 61 2117 38 36 50 41 101 42 33 1 45 -6 81 -42z"/>
<path d="M11031 5950 c126 -67 119 -194 -16 -256 -27 -13 -44 -24 -36 -24 28
0 112 55 131 85 31 50 27 107 -11 150 -30 33 -77 66 -96 65 -4 -1 8 -10 28
-20z"/>
<path d="M5611 5804 c-2 -35 41 -86 94 -113 l49 -26 2606 0 2605 0 -2605 5
c-2367 5 -2608 6 -2640 21 -46 21 -88 65 -99 103 -7 22 -9 25 -10 10z"/>
</g>
</svg>
