<svg id="svg" version="1.1" xmlns="http://www.w3.org/2000/svg" xmlns:xlink="http://www.w3.org/1999/xlink" width="400" height="487.95811518324604" viewBox="0, 0, 400,487.95811518324604"><g id="svgg"><path id="path0" d="M189.600 44.432 L 188.600 44.800 188.600 247.591 L 188.600 450.382 187.491 451.491 L 186.382 452.600 112.240 452.703 L 38.099 452.806 37.849 454.053 C 37.267 456.966,37.573 474.584,38.223 475.511 L 38.845 476.400 200.184 476.400 L 361.522 476.400 361.870 475.300 C 362.061 474.695,362.153 469.386,362.075 463.503 L 361.931 452.806 287.777 452.703 L 213.622 452.600 212.711 451.689 L 211.800 450.778 211.699 247.779 L 211.598 44.779 210.573 44.390 C 209.278 43.898,190.950 43.934,189.600 44.432 " stroke="none" fill="#5f3f20" fill-rule="evenodd"></path><path id="path1" d="M0.000 243.800 L 0.000 487.600 200.000 487.600 L 400.000 487.600 400.000 243.800 L 400.000 0.000 200.000 0.000 L 0.000 0.000 0.000 243.800 M212.895 41.512 C 214.422 42.781,214.402 40.161,214.399 247.446 C 214.397 358.481,214.501 449.435,214.631 449.564 C 214.761 449.694,248.107 449.890,288.733 450.000 C 360.087 450.193,362.638 450.225,363.705 450.949 C 365.319 452.044,365.400 452.718,365.400 465.058 C 365.400 477.488,365.451 477.229,362.721 478.641 C 361.132 479.462,39.052 479.483,37.087 478.662 C 34.552 477.602,34.600 477.877,34.600 464.548 L 34.600 452.419 35.709 451.310 L 36.818 450.200 110.976 450.000 C 151.762 449.890,185.283 449.650,185.467 449.467 C 185.650 449.283,185.890 357.736,186.000 246.028 C 186.175 68.419,186.274 42.834,186.786 42.217 C 187.108 41.828,187.738 41.357,188.186 41.169 C 189.555 40.595,212.169 40.909,212.895 41.512 " stroke="none" fill="#fbfbfb" fill-rule="evenodd"></path><path id="path2" d="M188.255 44.028 L 187.202 44.856 187.101 247.860 C 187.001 448.290,186.990 450.872,186.224 451.432 C 185.560 451.918,174.769 452.000,111.768 452.000 C 42.193 452.000,38.041 452.039,37.225 452.700 C 36.373 453.391,36.363 453.540,36.481 464.536 L 36.600 475.672 37.544 476.436 C 38.816 477.465,360.817 477.660,362.224 476.633 C 363.356 475.805,363.660 453.971,362.556 452.751 C 361.895 452.021,359.782 452.000,288.200 452.000 L 214.524 452.000 213.762 451.158 C 213.015 450.333,212.998 446.309,212.899 247.586 L 212.798 44.856 211.745 44.028 C 210.114 42.746,189.886 42.746,188.255 44.028 M210.573 44.390 L 211.598 44.779 211.699 247.779 L 211.800 450.778 212.711 451.689 L 213.622 452.600 287.777 452.703 L 361.931 452.806 362.075 463.503 C 362.153 469.386,362.061 474.695,361.870 475.300 L 361.522 476.400 200.184 476.400 L 38.845 476.400 38.223 475.511 C 37.573 474.584,37.267 456.966,37.849 454.053 L 38.099 452.806 112.240 452.703 L 186.382 452.600 187.491 451.491 L 188.600 450.382 188.600 247.591 L 188.600 44.800 189.600 44.432 C 190.950 43.934,209.278 43.898,210.573 44.390 " stroke="none" fill="#94846c" fill-rule="evenodd"></path><path id="path3" d="M188.186 41.169 C 187.738 41.357,187.108 41.828,186.786 42.217 C 186.274 42.834,186.175 68.419,186.000 246.028 C 185.890 357.736,185.650 449.283,185.467 449.467 C 185.283 449.650,151.762 449.890,110.976 450.000 L 36.818 450.200 35.709 451.310 L 34.600 452.419 34.600 464.548 C 34.600 477.877,34.552 477.602,37.087 478.662 C 39.052 479.483,361.132 479.462,362.721 478.641 C 365.451 477.229,365.400 477.488,365.400 465.058 C 365.400 452.718,365.319 452.044,363.705 450.949 C 362.638 450.225,360.087 450.193,288.733 450.000 C 248.107 449.890,214.761 449.694,214.631 449.564 C 214.501 449.435,214.397 358.481,214.399 247.446 C 214.402 40.161,214.422 42.781,212.895 41.512 C 212.169 40.909,189.555 40.595,188.186 41.169 M212.038 43.227 L 213.200 44.054 213.200 246.240 C 213.200 421.891,213.276 448.608,213.780 449.813 L 214.359 451.200 287.818 451.200 C 356.898 451.200,361.347 451.241,362.455 451.896 C 364.060 452.844,364.053 452.780,363.919 465.138 L 363.800 476.072 362.854 476.837 C 361.422 477.996,37.675 477.846,36.514 476.686 C 35.657 475.830,35.185 455.543,35.974 453.468 C 36.888 451.066,32.347 451.200,112.548 451.200 L 185.922 451.200 186.361 449.940 C 186.677 449.032,186.800 392.298,186.800 246.617 C 186.800 85.567,186.901 44.426,187.300 43.926 C 188.411 42.534,189.339 42.424,200.138 42.412 C 210.364 42.401,210.932 42.440,212.038 43.227 " stroke="none" fill="#ccbcb4" fill-rule="evenodd"></path><path id="path4" d="M188.600 42.862 C 188.160 43.103,187.575 43.581,187.300 43.926 C 186.901 44.426,186.800 85.567,186.800 246.617 C 186.800 392.298,186.677 449.032,186.361 449.940 L 185.922 451.200 112.548 451.200 C 32.347 451.200,36.888 451.066,35.974 453.468 C 35.185 455.543,35.657 475.830,36.514 476.686 C 37.675 477.846,361.422 477.996,362.854 476.837 L 363.800 476.072 363.919 465.138 C 364.053 452.780,364.060 452.844,362.455 451.896 C 361.347 451.241,356.898 451.200,287.818 451.200 L 214.359 451.200 213.780 449.813 C 213.276 448.608,213.200 421.891,213.200 246.240 L 213.200 44.054 212.038 43.227 C 210.689 42.267,190.270 41.948,188.600 42.862 M211.745 44.028 L 212.798 44.856 212.899 247.586 C 212.998 446.309,213.015 450.333,213.762 451.158 L 214.524 452.000 288.200 452.000 C 359.782 452.000,361.895 452.021,362.556 452.751 C 363.660 453.971,363.356 475.805,362.224 476.633 C 360.817 477.660,38.816 477.465,37.544 476.436 L 36.600 475.672 36.481 464.536 C 36.363 453.540,36.373 453.391,37.225 452.700 C 38.041 452.039,42.193 452.000,111.768 452.000 C 174.769 452.000,185.560 451.918,186.224 451.432 C 186.990 450.872,187.001 448.290,187.101 247.860 L 187.202 44.856 188.255 44.028 C 189.886 42.746,210.114 42.746,211.745 44.028 " stroke="none" fill="#a49484" fill-rule="evenodd"></path></g></svg>